<svg viewBox="0 0 24 24" focusable="false" aria-hidden="true" version="1.1" xmlns="http://www.w3.org/2000/svg">
    <path clip-rule="evenodd"
          d="M4.06189 11L8.15696 11C8.22016 10.823 8.30475 10.6539 8.41477 10.4957C8.72756 10.0459 9.16263 9.80342 9.58322 9.67334C9.98534 9.54898 10.4165 9.51386 10.8011 9.50187C11.0632 9.4937 11.356 9.49595 11.6368 9.4981C11.7615 9.49906 11.8838 9.5 12 9.5C12.1162 9.5 12.2385 9.49906 12.3632 9.4981C12.644 9.49595 12.9368 9.4937 13.1989 9.50187C13.5835 9.51386 14.0147 9.54898 14.4168 9.67334C14.8374 9.80342 15.2724 10.0459 15.5852 10.4957C15.6953 10.6539 15.7798 10.823 15.843 11L19.9381 11C19.446 7.05369 16.0796 4 12 4C7.92038 4 4.55399 7.05369 4.06189 11ZM19.9381 13L15.874 13C15.5122 14.4056 14.4056 15.5122 13 15.874V19.9381C16.6187 19.4869 19.4869 16.6187 19.9381 13ZM11 19.9381V15.874C9.59439 15.5122 8.48779 14.4056 8.12602 13L4.06189 13C4.51314 16.6187 7.38128 19.4869 11 19.9381ZM12.011 14H11.989C10.8895 13.9941 10 13.1009 10 12C10 11.8588 10.0145 11.7667 10.029 11.7106C10.0427 11.6577 10.0558 11.6389 10.0567 11.6376L10.0567 11.6376L10.0578 11.6362C10.058 11.6361 10.0602 11.6339 10.0661 11.63C10.0785 11.6218 10.11 11.6039 10.1741 11.584C10.3149 11.5405 10.5302 11.5113 10.8634 11.5009C11.0867 11.4939 11.313 11.4957 11.5701 11.4978C11.7038 11.4989 11.8458 11.5 12 11.5C12.1542 11.5 12.2962 11.4989 12.4299 11.4978C12.687 11.4957 12.9133 11.4939 13.1366 11.5009C13.4698 11.5113 13.6851 11.5405 13.8259 11.584C13.89 11.6039 13.9215 11.6218 13.9339 11.63C13.9397 11.6339 13.942 11.636 13.9422 11.6362L13.9422 11.6362L13.9433 11.6376C13.9439 11.6385 13.9571 11.6571 13.971 11.7106C13.9855 11.7667 14 11.8588 14 12C14 13.1009 13.1105 13.9941 12.011 14ZM2 12C2 6.47715 6.47715 2 12 2C17.5228 2 22 6.47715 22 12C22 17.5228 17.5228 22 12 22C6.47715 22 2 17.5228 2 12Z"></path>
</svg>