<svg viewBox="0 0 24 24" focusable="false" aria-hidden="true" version="1.1" xmlns="http://www.w3.org/2000/svg"><path fill-rule="evenodd" clip-rule="evenodd" d="M4 12C4 7.58172 7.58172 4 12 4C13.9129 4 15.668 4.67045 17.0449 5.79082L11.305 11.3399C11.1112 11.5272 11.0012 11.7849 11 12.0544C10.9988 12.3239 11.1065 12.5825 11.2986 12.7716L16.9228 18.3065C15.565 19.3683 13.8569 20 12 20C7.58172 20 4 16.4183 4 12ZM12 2C6.47715 2 2 6.47715 2 12C2 17.5228 6.47715 22 12 22C14.7732 22 17.2843 20.8698 19.0947 19.0474C19.2821 18.8587 19.3867 18.603 19.3852 18.337C19.3837 18.071 19.2762 17.8165 19.0866 17.6299L13.4321 12.0652L19.195 6.49399C19.5908 6.11137 19.6029 5.48081 19.2221 5.08327C17.4031 3.18438 14.839 2 12 2ZM10 6C8.89543 6 8 6.89543 8 8C8 9.10457 8.89543 10 10 10C11.1046 10 12 9.10457 12 8C12 6.89543 11.1046 6 10 6ZM20 12C20 11.4477 20.4477 11 21 11C21.5523 11 22 11.4477 22 12C22 12.5523 21.5523 13 21 13C20.4477 13 20 12.5523 20 12ZM17 11C16.4477 11 16 11.4477 16 12C16 12.5523 16.4477 13 17 13H18C18.5523 13 19 12.5523 19 12C19 11.4477 18.5523 11 18 11H17Z"></path></svg>