<svg viewBox="0 0 24 24" focusable="false" aria-hidden="true" version="1.1" xmlns="http://www.w3.org/2000/svg"><path fill-rule="evenodd" clip-rule="evenodd" d="M8 6C8 6.01653 8.0004 6.03296 8.00119 6.04929C7.3819 6.68067 7 7.54573 7 8.5C7 9.18297 7.19562 9.82026 7.53389 10.3589C7.22002 10.5775 6.96849 10.8861 6.82006 11.2572L3.62006 19.2572C3.09456 20.5709 4.06208 22 5.47701 22H5.58576C6.11619 22 6.6249 21.7893 6.99998 21.4142L7.99998 20.4142L8.58576 21C9.36681 21.781 10.6331 21.781 11.4142 21L12 20.4142L12.5858 21C13.3668 21.781 14.6331 21.781 15.4142 21L16 20.4142L17 21.4142C17.375 21.7893 17.8838 22 18.4142 22H18.5229C19.9379 22 20.9054 20.5709 20.3799 19.2572L17.1799 11.2572C17.0315 10.8861 16.7799 10.5775 16.4661 10.3589C16.8044 9.82028 17 9.18298 17 8.5C17 7.54573 16.6181 6.68067 15.9988 6.04929C15.9996 6.03296 16 6.01653 16 6V3C16 2.44772 15.5523 2 15 2C14.4477 2 14 2.44772 14 3V5.03544C13.8367 5.01209 13.6698 5 13.5 5H10.5C10.3302 5 10.1633 5.01209 10 5.03544V3C10 2.44772 9.55228 2 9 2C8.44772 2 8 2.44772 8 3V6ZM13.5 10C14.3284 10 15 9.32843 15 8.5C15 7.67157 14.3284 7 13.5 7H10.5C9.67157 7 9 7.67157 9 8.5C9 9.32843 9.67157 10 10.5 10H13.5ZM10.5 12L8.67701 12L5.47701 20H5.58576L6.58576 19C7.36681 18.219 8.63314 18.219 9.41419 19L9.99998 19.5858L10.5858 19C11.3668 18.219 12.6331 18.219 13.4142 19L14 19.5858L14.5858 19C15.3668 18.219 16.6331 18.219 17.4142 19L18.4142 20H18.5229L15.3229 12H13.5H10.5Z"></path></svg>