<svg version="1.1" enable-background="new 0 0 19 19" id="Layer_1" xmlns="http://www.w3.org/2000/svg" xmlns:xlink="http://www.w3.org/1999/xlink" x="0" y="0" viewBox="0 0 19 19" xml:space="preserve" style="width: 20px;"><g id="logo_googleg_48dp" transform="translate(15.000000, 15.000000)"><path id="Shape" class="st0" fill="#4285F4" d="M3.31-5.13c0-0.64-0.06-1.25-0.16-1.84h-8.48v3.48h4.84c-0.21,1.12-0.84,2.08-1.8,2.72v2.26h2.91 C2.32-0.08,3.31-2.39,3.31-5.13L3.31-5.13z"></path><path id="Shape_1_" class="st1" fill="#34A853" d="M-5.33,3.67c2.43,0,4.47-0.81,5.96-2.18l-2.91-2.26c-0.81,0.54-1.84,0.86-3.05,0.86 c-2.34,0-4.33-1.58-5.04-3.71h-3.01v2.33C-11.9,1.65-8.85,3.67-5.33,3.67L-5.33,3.67z"></path><path id="Shape_2_" class="st2" fill="#FBBC05" d="M-10.37-3.62c-0.18-0.54-0.28-1.12-0.28-1.71s0.1-1.17,0.28-1.71v-2.33h-3.01 c-0.61,1.22-0.96,2.59-0.96,4.04s0.35,2.83,0.96,4.04L-10.37-3.62L-10.37-3.62z"></path><path id="Shape_3_" class="st3" fill="#EA4335" d="M-5.33-10.75c1.32,0,2.51,0.45,3.44,1.35l2.58-2.58c-1.56-1.45-3.6-2.34-6.02-2.34 c-3.52,0-6.56,2.02-8.04,4.96l3.01,2.33C-9.66-9.17-7.68-10.75-5.33-10.75L-5.33-10.75z"></path><path id="Shape_4_" class="st4" fill="none" d="M-14.33-14.33h18v18h-18V-14.33z"></path></g></svg>